<?xml version="1.0" encoding="utf-8"?>
<!-- Generator: Adobe Illustrator 16.0.0, SVG Export Plug-In . SVG Version: 6.00 Build 0)  -->
<!DOCTYPE svg PUBLIC "-//W3C//DTD SVG 1.1//EN" "http://www.w3.org/Graphics/SVG/1.1/DTD/svg11.dtd">
<svg version="1.1" xmlns="http://www.w3.org/2000/svg" xmlns:xlink="http://www.w3.org/1999/xlink" x="0px" y="0px" width="612px"
	 height="792px" viewBox="0 0 612 792" enable-background="new 0 0 612 792" xml:space="preserve">
<g id="Layer_2">
</g>
<g id="Layer_4">
	<g>
		<g>
			<path fill="#1DC4E7" d="M17.565,427.701c1.076-3.891,1.007-7.937,1.565-11.898c1.444-10.258,3.989-20.229,7.766-29.832
				c16.186-41.15,45.092-69.474,86.403-85.177c0.512-0.194,0.982-0.5,1.472-0.754c2.792-0.771,5.599-1.497,8.375-2.324
				c13.017-3.878,26.417-5.234,39.893-5.451c6.882-0.11,13.841,0.646,20.667,1.666c14.531,2.171,28.493,6.417,41.715,12.898
				c9.458,4.637,18.342,10.227,26.609,16.759c7.903,6.247,15.156,13.228,21.501,21.02c8.492,10.43,15.584,21.761,21.017,34.154
				c5.805,13.239,9.427,26.976,11.247,41.285c0.348,2.739-0.258,5.621,1.006,8.241c0.006,51.013,0.013,102.022,0.018,153.033
				c-0.28,0.021-0.563,0.06-0.843,0.06c-49.979-0.011-99.957-0.022-149.935-0.035c-2.351,0-4.741,0.268-7.044-0.065
				c-9.862-1.432-19.676-3.006-29.248-6.022c-11.193-3.529-21.816-8.2-31.84-14.248c-13.009-7.851-24.542-17.455-34.585-28.899
				c-7.72-8.797-14.108-18.489-19.822-28.63c-2.27-4.027-3.894-8.436-5.625-12.746c-4.678-11.648-7.908-23.659-9.313-36.188
				c-0.283-2.521,0.318-5.234-0.999-7.635C17.565,440.508,17.565,434.104,17.565,427.701z"/>
			<path fill="#3169FE" d="M596.064,448.039c-1.204,3.177-1.065,6.569-1.54,9.857c-8.533,59.084-53.252,107.287-111.513,120.139
				c-9.859,2.177-19.812,3.377-29.924,3.371c-47.816-0.031-95.634-0.01-143.451-0.013c-0.751,0-1.501-0.063-2.252-0.095
				c0.624-0.697,1.199-1.448,1.881-2.086c8.623-8.083,17.343-16.066,25.869-24.249c6.704-6.436,13.462-12.808,20.263-19.14
				c11.334-10.554,22.478-21.313,33.728-31.956c5.655-5.35,11.395-10.611,17.057-15.957c10.716-10.112,21.464-20.193,32.078-30.414
				c5.744-5.529,11.294-11.243,16.418-17.397c8.487-10.197,15.949-21.05,22.175-32.747c6.322-11.88,11.473-24.252,15.171-37.206
				c4.564-15.988,7.308-32.263,7.418-48.92c0.046-6.938,0.304-13.89-0.467-20.813c17.03,5.757,32.337,14.582,45.965,26.249
				c24.96,21.372,40.976,48.154,47.974,80.279c1.319,6.058,2.245,12.187,2.637,18.387c0.05,0.8-0.253,1.715,0.517,2.372
				C596.064,434.48,596.064,441.26,596.064,448.039z"/>
			<path fill="#1988DF" d="M306.801,428.287c-1.265-2.621-0.658-5.502-1.006-8.241c-1.82-14.311-5.442-28.046-11.247-41.286
				c-5.433-12.393-12.525-23.724-21.017-34.153c-6.345-7.792-13.598-14.772-21.501-21.02c-8.267-6.532-17.15-12.122-26.609-16.759
				c-13.222-6.481-27.184-10.729-41.715-12.898c-6.826-1.021-13.784-1.776-20.667-1.666c-13.476,0.216-26.876,1.572-39.893,5.451
				c-2.776,0.828-5.583,1.554-8.375,2.324c1.126-14.778,3.816-29.293,8.724-43.26c23.459-66.757,69.469-109.466,137.805-127.677
				c23.215-6.188,46.979-6.947,70.837-3.782c36.03,4.78,68.273,18.533,96.329,41.544c35.033,28.734,57.429,65.403,67.006,109.777
				c1.667,7.72,2.875,15.518,3.372,23.412c-0.55-0.105-1.119-0.149-1.646-0.322c-15.173-4.986-30.688-7.526-46.713-7.146
				c-7.041,0.167-14.08,0.198-21.026,1.355c-13.176,2.195-25.892,5.898-38.109,11.448c-13.635,6.191-25.928,14.376-36.993,24.336
				c-10.802,9.719-19.942,20.903-27.33,33.463c-10.359,17.614-16.827,36.518-19.204,56.854
				C307.501,422.779,308.058,425.664,306.801,428.287z"/>
			<path fill="#3153FE" d="M306.801,428.287c1.257-2.623,0.7-5.508,1.021-8.245c2.377-20.337,8.845-39.241,19.204-56.854
				c7.388-12.561,16.528-23.744,27.33-33.463c11.065-9.96,23.358-18.145,36.993-24.336c12.219-5.55,24.935-9.253,38.109-11.448
				c6.946-1.157,13.985-1.188,21.026-1.355c16.023-0.379,31.54,2.16,46.713,7.146c0.526,0.173,1.097,0.217,1.646,0.322
				c0.115,0.095,0.158,0.215,0.13,0.361c0.771,6.923,0.513,13.873,0.467,20.813c-0.11,16.657-2.854,32.932-7.418,48.92
				c-3.698,12.954-8.849,25.326-15.171,37.206c-6.226,11.697-13.688,22.55-22.175,32.747c-5.124,6.154-10.674,11.868-16.418,17.397
				c-10.615,10.221-21.363,20.302-32.078,30.414c-5.662,5.346-11.4,10.607-17.057,15.957c-11.25,10.645-22.395,21.402-33.729,31.956
				c-6.8,6.332-13.558,12.704-20.262,19.14c-8.526,8.183-17.246,16.166-25.869,24.249c-0.682,0.638-1.257,1.389-1.881,2.086
				c-0.188,0.008-0.379,0.015-0.567,0.021C306.813,530.309,306.807,479.3,306.801,428.287z"/>
		</g>
	</g>
</g>
</svg>
