<?xml version="1.0" encoding="utf-8"?>
<!-- Generator: Adobe Illustrator 16.0.0, SVG Export Plug-In . SVG Version: 6.00 Build 0)  -->
<!DOCTYPE svg PUBLIC "-//W3C//DTD SVG 1.1//EN" "http://www.w3.org/Graphics/SVG/1.1/DTD/svg11.dtd">
<svg version="1.1" id="Layer_1" xmlns="http://www.w3.org/2000/svg" xmlns:xlink="http://www.w3.org/1999/xlink" x="0px" y="0px"
	 width="612px" height="792px" viewBox="0 0 612 792" enable-background="new 0 0 612 792" xml:space="preserve">
<title>Element 1</title>
<g id="Page-1">
	<g id="slite">
		<path id="Shape" d="M443.623,449.841c0-0.591,0-1.173,0-1.772c0-50.678,34.602-88.526,82.767-88.526
			c52.382,0,82.128,34.648,82.128,89.493c0,2.228,0,4.463-0.115,6.698h-119.74c1.405,8.91,5.951,17.034,12.812,22.901
			c6.857,5.86,15.584,9.079,24.615,9.087v44.563c-45.544,0-82.439-36.904-82.439-82.443H443.623L443.623,449.841z M388.661,363.476
			h47.113v47.111h-47.113v121.697h-47.104V296.73h47.104V363.476L388.661,363.476z M81.795,296.73
			c45.542,0,64.304,32.934,69.797,49.402l-37.809,17.112c-4.842-10.661-13.245-24.547-32.976-24.547
			c-15.507,0-24.56,9.371-24.56,21.637c0,37.458,98.23,31.968,98.23,102.021c0,39.715-28.433,68.769-75.607,68.769
			c-48.473,0-68.502-33.899-74.966-52.302l38.449-18.727c6.14,14.854,18.745,28.739,39.099,28.739
			c16.805,0,26.819-8.725,26.819-23.249c0-38.748-97.577-32.281-97.577-104.601c0.003-38.104,27.788-64.255,71.084-64.255H81.795
			L81.795,296.73z M176.664,532.284V296.73h47.112v235.554H176.664z M259.106,532.284V363.476h47.114v168.809L259.106,532.284
			L259.106,532.284z M492.695,424.319h66.744c-2.995-16.784-16.068-27.481-33.374-27.481c-17.728,0-29.809,11.581-33.387,27.481
			H492.695z"/>
		<polygon id="Shape_1_" fill="#AAE7ED" points="306.203,296.733 259.092,296.733 259.092,343.844 306.203,343.844 		"/>
		<polygon id="Shape_2_" fill="#FFE697" points="608.5,485.18 561.389,485.18 561.389,532.291 608.5,532.291 		"/>
	</g>
</g>
</svg>
