<?xml version="1.0" encoding="utf-8"?>
<!-- Generator: Adobe Illustrator 16.0.0, SVG Export Plug-In . SVG Version: 6.00 Build 0)  -->
<!DOCTYPE svg PUBLIC "-//W3C//DTD SVG 1.1//EN" "http://www.w3.org/Graphics/SVG/1.1/DTD/svg11.dtd">
<svg version="1.1" id="Layer_1" xmlns="http://www.w3.org/2000/svg" xmlns:xlink="http://www.w3.org/1999/xlink" x="0px" y="0px"
	 width="612px" height="792px" viewBox="0 0 612 792" enable-background="new 0 0 612 792" xml:space="preserve">
<title>Element 1</title>
<g id="Ebene_2">
	<g id="Layer_1_1_">
		<path fill="#FFFFFF" d="M94.107,591.189c0.502,5.733,5.089,13.026,13.027,13.026h4.641c1.807-0.01,3.27-1.472,3.279-3.279V498.803
			l0,0c-0.095-1.734-1.525-3.094-3.261-3.101H97.458c-1.736,0.007-3.166,1.366-3.261,3.101l0,0v8.296
			c-8.816-10.877-22.739-15.374-36.679-15.374c-31.727-0.05-57.486,25.63-57.536,57.356c-0.049,31.727,25.63,57.486,57.356,57.536
			l0,0c13.958,0,29.153-5.376,36.679-15.374L94.107,591.189z M57.482,586.459c-20.613,0-37.324-16.711-37.324-37.324
			s16.71-37.323,37.324-37.323s37.324,16.71,37.324,37.323S78.095,586.459,57.482,586.459z"/>
		<path fill="#FFFFFF" d="M328.747,591.189c0.502,5.733,5.089,13.026,13.026,13.026h4.642c1.811,0,3.278-1.468,3.278-3.279l0,0
			V498.803l0,0c-0.095-1.734-1.524-3.094-3.261-3.101h-14.335c-1.736,0.007-3.166,1.366-3.261,3.101l0,0v8.296
			c-8.834-10.877-22.738-15.374-36.697-15.374c-31.727-0.02-57.462,25.684-57.482,57.41c-0.02,31.727,25.684,57.462,57.41,57.482
			l0,0c13.959,0,29.153-5.376,36.679-15.374V591.189z M292.068,586.44c-20.608,0.445-37.676-15.899-38.121-36.509
			c-0.445-20.608,15.9-37.676,36.509-38.121c20.608-0.445,37.676,15.9,38.121,36.509c0.006,0.266,0.009,0.532,0.009,0.798
			C328.805,569.506,312.458,586.215,292.068,586.44z"/>
		<path fill="#FFFFFF" d="M591.054,591.189c0.501,5.733,5.089,13.026,13.026,13.026h4.641c1.807-0.01,3.27-1.472,3.279-3.279
			V498.803l0,0c-0.095-1.734-1.525-3.094-3.262-3.101h-14.334c-1.736,0.007-3.166,1.366-3.262,3.101l0,0v8.296
			c-8.815-10.877-22.738-15.374-36.679-15.374c-31.712,0-57.419,25.708-57.419,57.419c0,31.712,25.707,57.42,57.419,57.42l0,0
			c13.959,0,29.153-5.376,36.679-15.374H591.054z M554.429,586.459c-20.608,0.445-37.677-15.9-38.122-36.509
			s15.9-37.677,36.509-38.122c20.609-0.445,37.677,15.9,38.122,36.509c0.006,0.267,0.009,0.532,0.009,0.798
			c0.209,20.39-16.146,37.09-36.536,37.306L554.429,586.459z"/>
		<path fill="#FFFFFF" d="M478.741,594.701v-52.859l0,0c0-29.798-18.796-49.884-48.773-49.884c-14.335,0-27.397,8.206-30.175,15.373
			c-0.896-5.555-3.852-11.396-12.99-11.396h-4.659c-1.811,0-3.278,1.468-3.278,3.279l0,0v92.226l0,0v9.908l0,0
			c0.095,1.734,1.524,3.094,3.261,3.101h14.335c0.214,0.021,0.431,0.021,0.645,0h0.269l0.323-0.108l0.358-0.196l0.179-0.09
			c0.14-0.098,0.271-0.205,0.395-0.322l0,0c0.144-0.138,0.275-0.288,0.394-0.448l0,0c0.377-0.523,0.589-1.147,0.609-1.792l0,0
			v-60.475c0.008-16.002,12.986-28.967,28.988-28.96c15.991,0.008,28.952,12.97,28.96,28.96v50.44l0,0c0,0,0,0.09,0,0.144v9.783l0,0
			c0.095,1.733,1.524,3.093,3.261,3.1h14.335c0.215,0.021,0.431,0.021,0.645,0h0.251l0.358-0.107l0.341-0.179l0.197-0.107
			c0.132-0.093,0.258-0.195,0.376-0.305h0.09c0.137-0.133,0.263-0.277,0.376-0.431l0,0c0.376-0.523,0.588-1.147,0.609-1.792l0,0
			v-6.665L478.741,594.701z"/>
		<path fill="#FFFFFF" d="M149.475,576.55c8.818,6.302,19.354,9.753,30.192,9.891c9.604,0,19.531-4.98,19.531-13.653
			c0-11.575-21.645-13.367-35.245-17.918c-13.6-4.552-25.319-14.174-25.319-29.655c0-23.67,21.09-33.453,40.782-33.453
			c11.962-0.016,23.669,3.459,33.687,9.998c1.59,0.927,2.128,2.968,1.202,4.558c-0.023,0.04-0.048,0.08-0.073,0.119l-7.974,11.378
			c-0.852,1.542-2.792,2.102-4.334,1.249c-0.131-0.072-0.258-0.154-0.378-0.245c-6.522-4.48-14.235-6.907-22.147-6.971
			c-12.005,0-19.244,5.555-19.244,12.418c0,8.242,9.407,10.751,20.427,13.653c19.191,5.179,40.137,11.396,40.137,34.923
			c0,20.857-19.513,33.758-41.069,33.758c-15.044,0.28-29.768-4.363-41.929-13.224c-1.396-1.154-1.711-3.169-0.735-4.694
			l7.92-11.324c0.939-1.467,2.89-1.895,4.356-0.955C149.335,576.447,149.406,576.497,149.475,576.55z"/>
	</g>
	<g>
		<g>
			<defs>
				<path id="SVGID_1_" d="M349.816,220.653c0,31.836-25.808,57.647-57.641,57.647c-31.834,0-57.64-25.811-57.64-57.647
					c0-31.829,25.806-57.64,57.64-57.64C324.009,163.013,349.816,188.824,349.816,220.653z M217.299,292.713
					c-31.833,0-57.639,25.8-57.639,57.634c0,31.832,25.805,57.64,57.639,57.64c31.834,0,57.643-25.808,57.643-57.64
					C274.942,318.509,249.134,292.713,217.299,292.713z M367.053,292.706c-31.836,0-57.641,25.804-57.641,57.642
					c0,31.832,25.805,57.64,57.641,57.64c31.832,0,57.638-25.808,57.638-57.64C424.69,318.509,398.885,292.706,367.053,292.706z"/>
			</defs>
			<clipPath id="SVGID_2_">
				<use xlink:href="#SVGID_1_"  overflow="visible"/>
			</clipPath>
			
				<radialGradient id="SVGID_3_" cx="-16433.6211" cy="-2988.2324" r="151.0957" gradientTransform="matrix(0 -0.9604 -0.9604 0 -2577.7002 -15477.1563)" gradientUnits="userSpaceOnUse">
				<stop  offset="0" style="stop-color:#FCB713"/>
				<stop  offset="0.6" style="stop-color:#EF5D8D"/>
				<stop  offset="0.9991" style="stop-color:#EF5555"/>
			</radialGradient>
			<path clip-path="url(#SVGID_2_)" fill="url(#SVGID_3_)" d="M292.176,160.442c80.145,0,145.106,64.976,145.106,145.123
				c0,80.137-64.964,145.104-145.106,145.104c-80.144,0-145.11-64.967-145.11-145.104
				C147.066,225.418,212.035,160.442,292.176,160.442z"/>
		</g>
	</g>
</g>
</svg>
